<mxfile host="app.diagrams.net" modified="2020-10-22T22:33:55.181Z" agent="5.0 (Windows)" etag="oYoN-yvYd9HPsdA1oi-k" version="13.8.1" type="github">
  <diagram id="okJQ3bdY4JAh7K6EeQ1p" name="Page-1">
    <mxGraphModel dx="637" dy="657" grid="1" gridSize="10" guides="1" tooltips="1" connect="1" arrows="1" fold="1" page="1" pageScale="1" pageWidth="1600" pageHeight="900" math="0" shadow="0">
      <root>
        <mxCell id="0" />
        <mxCell id="1" parent="0" />
        <mxCell id="oLl_Wkx4Nh1EhpCTeB_h-163" style="edgeStyle=orthogonalEdgeStyle;rounded=0;orthogonalLoop=1;jettySize=auto;html=1;exitX=1;exitY=0.5;exitDx=0;exitDy=0;entryX=0;entryY=0.5;entryDx=0;entryDy=0;" parent="1" source="oLl_Wkx4Nh1EhpCTeB_h-2" target="2YGb_UYOJxYB_8AMPXfy-15" edge="1">
          <mxGeometry relative="1" as="geometry">
            <mxPoint x="400" y="125" as="targetPoint" />
          </mxGeometry>
        </mxCell>
        <mxCell id="oLl_Wkx4Nh1EhpCTeB_h-164" style="edgeStyle=orthogonalEdgeStyle;rounded=0;orthogonalLoop=1;jettySize=auto;html=1;exitX=1;exitY=0.5;exitDx=0;exitDy=0;entryX=1;entryY=0.167;entryDx=0;entryDy=0;entryPerimeter=0;" parent="1" source="oLl_Wkx4Nh1EhpCTeB_h-14" target="2YGb_UYOJxYB_8AMPXfy-1" edge="1">
          <mxGeometry relative="1" as="geometry">
            <mxPoint x="480" y="155" as="targetPoint" />
            <Array as="points">
              <mxPoint x="350" y="215" />
              <mxPoint x="350" y="300" />
            </Array>
          </mxGeometry>
        </mxCell>
        <mxCell id="oLl_Wkx4Nh1EhpCTeB_h-1" value="Cliente" style="shape=table;startSize=30;container=1;collapsible=1;childLayout=tableLayout;fixedRows=1;rowLines=0;fontStyle=1;align=center;resizeLast=1;" parent="1" vertex="1">
          <mxGeometry x="80" y="80" width="200" height="160" as="geometry" />
        </mxCell>
        <mxCell id="oLl_Wkx4Nh1EhpCTeB_h-2" value="" style="shape=partialRectangle;collapsible=0;dropTarget=0;pointerEvents=0;fillColor=none;top=0;left=0;bottom=1;right=0;points=[[0,0.5],[1,0.5]];portConstraint=eastwest;" parent="oLl_Wkx4Nh1EhpCTeB_h-1" vertex="1">
          <mxGeometry y="30" width="200" height="30" as="geometry" />
        </mxCell>
        <mxCell id="oLl_Wkx4Nh1EhpCTeB_h-3" value="PK" style="shape=partialRectangle;connectable=0;fillColor=none;top=0;left=0;bottom=0;right=0;fontStyle=1;overflow=hidden;" parent="oLl_Wkx4Nh1EhpCTeB_h-2" vertex="1">
          <mxGeometry width="30" height="30" as="geometry" />
        </mxCell>
        <mxCell id="oLl_Wkx4Nh1EhpCTeB_h-4" value="idCliente" style="shape=partialRectangle;connectable=0;fillColor=none;top=0;left=0;bottom=0;right=0;align=left;spacingLeft=6;fontStyle=5;overflow=hidden;" parent="oLl_Wkx4Nh1EhpCTeB_h-2" vertex="1">
          <mxGeometry x="30" width="170" height="30" as="geometry" />
        </mxCell>
        <mxCell id="oLl_Wkx4Nh1EhpCTeB_h-8" value="" style="shape=partialRectangle;collapsible=0;dropTarget=0;pointerEvents=0;fillColor=none;top=0;left=0;bottom=0;right=0;points=[[0,0.5],[1,0.5]];portConstraint=eastwest;" parent="oLl_Wkx4Nh1EhpCTeB_h-1" vertex="1">
          <mxGeometry y="60" width="200" height="30" as="geometry" />
        </mxCell>
        <mxCell id="oLl_Wkx4Nh1EhpCTeB_h-9" value="" style="shape=partialRectangle;connectable=0;fillColor=none;top=0;left=0;bottom=0;right=0;editable=1;overflow=hidden;" parent="oLl_Wkx4Nh1EhpCTeB_h-8" vertex="1">
          <mxGeometry width="30" height="30" as="geometry" />
        </mxCell>
        <mxCell id="oLl_Wkx4Nh1EhpCTeB_h-10" value="saldo" style="shape=partialRectangle;connectable=0;fillColor=none;top=0;left=0;bottom=0;right=0;align=left;spacingLeft=6;overflow=hidden;" parent="oLl_Wkx4Nh1EhpCTeB_h-8" vertex="1">
          <mxGeometry x="30" width="170" height="30" as="geometry" />
        </mxCell>
        <mxCell id="oLl_Wkx4Nh1EhpCTeB_h-11" value="" style="shape=partialRectangle;collapsible=0;dropTarget=0;pointerEvents=0;fillColor=none;top=0;left=0;bottom=0;right=0;points=[[0,0.5],[1,0.5]];portConstraint=eastwest;" parent="oLl_Wkx4Nh1EhpCTeB_h-1" vertex="1">
          <mxGeometry y="90" width="200" height="30" as="geometry" />
        </mxCell>
        <mxCell id="oLl_Wkx4Nh1EhpCTeB_h-12" value="" style="shape=partialRectangle;connectable=0;fillColor=none;top=0;left=0;bottom=0;right=0;editable=1;overflow=hidden;" parent="oLl_Wkx4Nh1EhpCTeB_h-11" vertex="1">
          <mxGeometry width="30" height="30" as="geometry" />
        </mxCell>
        <mxCell id="oLl_Wkx4Nh1EhpCTeB_h-13" value="limCredito" style="shape=partialRectangle;connectable=0;fillColor=none;top=0;left=0;bottom=0;right=0;align=left;spacingLeft=6;overflow=hidden;" parent="oLl_Wkx4Nh1EhpCTeB_h-11" vertex="1">
          <mxGeometry x="30" width="170" height="30" as="geometry" />
        </mxCell>
        <mxCell id="oLl_Wkx4Nh1EhpCTeB_h-14" value="" style="shape=partialRectangle;collapsible=0;dropTarget=0;pointerEvents=0;fillColor=none;top=0;left=0;bottom=0;right=0;points=[[0,0.5],[1,0.5]];portConstraint=eastwest;" parent="oLl_Wkx4Nh1EhpCTeB_h-1" vertex="1">
          <mxGeometry y="120" width="200" height="30" as="geometry" />
        </mxCell>
        <mxCell id="oLl_Wkx4Nh1EhpCTeB_h-15" value="" style="shape=partialRectangle;connectable=0;fillColor=none;top=0;left=0;bottom=0;right=0;editable=1;overflow=hidden;" parent="oLl_Wkx4Nh1EhpCTeB_h-14" vertex="1">
          <mxGeometry width="30" height="30" as="geometry" />
        </mxCell>
        <mxCell id="oLl_Wkx4Nh1EhpCTeB_h-16" value="direccionCliente" style="shape=partialRectangle;connectable=0;fillColor=none;top=0;left=0;bottom=0;right=0;align=left;spacingLeft=6;overflow=hidden;" parent="oLl_Wkx4Nh1EhpCTeB_h-14" vertex="1">
          <mxGeometry x="30" width="170" height="30" as="geometry" />
        </mxCell>
        <mxCell id="2YGb_UYOJxYB_8AMPXfy-14" value="Pedido" style="shape=table;startSize=30;container=1;collapsible=1;childLayout=tableLayout;fixedRows=1;rowLines=0;fontStyle=1;align=center;resizeLast=1;" vertex="1" parent="1">
          <mxGeometry x="480" y="80" width="200" height="160" as="geometry" />
        </mxCell>
        <mxCell id="2YGb_UYOJxYB_8AMPXfy-15" value="" style="shape=partialRectangle;collapsible=0;dropTarget=0;pointerEvents=0;fillColor=none;top=0;left=0;bottom=1;right=0;points=[[0,0.5],[1,0.5]];portConstraint=eastwest;" vertex="1" parent="2YGb_UYOJxYB_8AMPXfy-14">
          <mxGeometry y="30" width="200" height="30" as="geometry" />
        </mxCell>
        <mxCell id="2YGb_UYOJxYB_8AMPXfy-16" value="PK" style="shape=partialRectangle;connectable=0;fillColor=none;top=0;left=0;bottom=0;right=0;fontStyle=1;overflow=hidden;" vertex="1" parent="2YGb_UYOJxYB_8AMPXfy-15">
          <mxGeometry width="30" height="30" as="geometry" />
        </mxCell>
        <mxCell id="2YGb_UYOJxYB_8AMPXfy-17" value="idPedido" style="shape=partialRectangle;connectable=0;fillColor=none;top=0;left=0;bottom=0;right=0;align=left;spacingLeft=6;fontStyle=5;overflow=hidden;" vertex="1" parent="2YGb_UYOJxYB_8AMPXfy-15">
          <mxGeometry x="30" width="170" height="30" as="geometry" />
        </mxCell>
        <mxCell id="2YGb_UYOJxYB_8AMPXfy-18" value="" style="shape=partialRectangle;collapsible=0;dropTarget=0;pointerEvents=0;fillColor=none;top=0;left=0;bottom=0;right=0;points=[[0,0.5],[1,0.5]];portConstraint=eastwest;" vertex="1" parent="2YGb_UYOJxYB_8AMPXfy-14">
          <mxGeometry y="60" width="200" height="30" as="geometry" />
        </mxCell>
        <mxCell id="2YGb_UYOJxYB_8AMPXfy-19" value="" style="shape=partialRectangle;connectable=0;fillColor=none;top=0;left=0;bottom=0;right=0;editable=1;overflow=hidden;" vertex="1" parent="2YGb_UYOJxYB_8AMPXfy-18">
          <mxGeometry width="30" height="30" as="geometry" />
        </mxCell>
        <mxCell id="2YGb_UYOJxYB_8AMPXfy-20" value="fechaPedido" style="shape=partialRectangle;connectable=0;fillColor=none;top=0;left=0;bottom=0;right=0;align=left;spacingLeft=6;overflow=hidden;" vertex="1" parent="2YGb_UYOJxYB_8AMPXfy-18">
          <mxGeometry x="30" width="170" height="30" as="geometry" />
        </mxCell>
        <mxCell id="2YGb_UYOJxYB_8AMPXfy-21" value="" style="shape=partialRectangle;collapsible=0;dropTarget=0;pointerEvents=0;fillColor=none;top=0;left=0;bottom=0;right=0;points=[[0,0.5],[1,0.5]];portConstraint=eastwest;" vertex="1" parent="2YGb_UYOJxYB_8AMPXfy-14">
          <mxGeometry y="90" width="200" height="30" as="geometry" />
        </mxCell>
        <mxCell id="2YGb_UYOJxYB_8AMPXfy-22" value="fk" style="shape=partialRectangle;connectable=0;fillColor=none;top=0;left=0;bottom=0;right=0;editable=1;overflow=hidden;fontStyle=1" vertex="1" parent="2YGb_UYOJxYB_8AMPXfy-21">
          <mxGeometry width="30" height="30" as="geometry" />
        </mxCell>
        <mxCell id="2YGb_UYOJxYB_8AMPXfy-23" value="direccionCliente" style="shape=partialRectangle;connectable=0;fillColor=none;top=0;left=0;bottom=0;right=0;align=left;spacingLeft=6;overflow=hidden;fontStyle=1" vertex="1" parent="2YGb_UYOJxYB_8AMPXfy-21">
          <mxGeometry x="30" width="170" height="30" as="geometry" />
        </mxCell>
        <mxCell id="2YGb_UYOJxYB_8AMPXfy-1" value="direccionCliente" style="shape=table;startSize=30;container=1;collapsible=1;childLayout=tableLayout;fixedRows=1;rowLines=0;fontStyle=1;align=center;resizeLast=1;" vertex="1" parent="1">
          <mxGeometry x="80" y="280" width="200" height="120" as="geometry" />
        </mxCell>
        <mxCell id="2YGb_UYOJxYB_8AMPXfy-2" value="" style="shape=partialRectangle;collapsible=0;dropTarget=0;pointerEvents=0;fillColor=none;top=0;left=0;bottom=1;right=0;points=[[0,0.5],[1,0.5]];portConstraint=eastwest;" vertex="1" parent="2YGb_UYOJxYB_8AMPXfy-1">
          <mxGeometry y="30" width="200" height="30" as="geometry" />
        </mxCell>
        <mxCell id="2YGb_UYOJxYB_8AMPXfy-3" value="PK" style="shape=partialRectangle;connectable=0;fillColor=none;top=0;left=0;bottom=0;right=0;fontStyle=1;overflow=hidden;" vertex="1" parent="2YGb_UYOJxYB_8AMPXfy-2">
          <mxGeometry width="30" height="30" as="geometry" />
        </mxCell>
        <mxCell id="2YGb_UYOJxYB_8AMPXfy-4" value="idCliente&#xa;direccionCliente&#xa;" style="shape=partialRectangle;connectable=0;fillColor=none;top=0;left=0;bottom=0;right=0;align=left;spacingLeft=6;fontStyle=5;overflow=hidden;" vertex="1" parent="2YGb_UYOJxYB_8AMPXfy-2">
          <mxGeometry x="30" width="170" height="30" as="geometry" />
        </mxCell>
        <mxCell id="2YGb_UYOJxYB_8AMPXfy-40" style="edgeStyle=orthogonalEdgeStyle;rounded=0;orthogonalLoop=1;jettySize=auto;html=1;exitX=1;exitY=0.5;exitDx=0;exitDy=0;entryX=0;entryY=0.5;entryDx=0;entryDy=0;" edge="1" parent="1" source="2YGb_UYOJxYB_8AMPXfy-15" target="2YGb_UYOJxYB_8AMPXfy-28">
          <mxGeometry relative="1" as="geometry" />
        </mxCell>
        <mxCell id="2YGb_UYOJxYB_8AMPXfy-54" style="edgeStyle=orthogonalEdgeStyle;rounded=0;orthogonalLoop=1;jettySize=auto;html=1;exitX=1;exitY=0.25;exitDx=0;exitDy=0;entryX=0.002;entryY=0.319;entryDx=0;entryDy=0;entryPerimeter=0;" edge="1" parent="1" source="2YGb_UYOJxYB_8AMPXfy-27" target="2YGb_UYOJxYB_8AMPXfy-42">
          <mxGeometry relative="1" as="geometry">
            <mxPoint x="1250" y="120.17647058823536" as="targetPoint" />
            <Array as="points">
              <mxPoint x="1185" y="120" />
            </Array>
          </mxGeometry>
        </mxCell>
        <mxCell id="2YGb_UYOJxYB_8AMPXfy-74" style="edgeStyle=orthogonalEdgeStyle;rounded=0;orthogonalLoop=1;jettySize=auto;html=1;exitX=0.5;exitY=1;exitDx=0;exitDy=0;" edge="1" parent="1" source="2YGb_UYOJxYB_8AMPXfy-41" target="2YGb_UYOJxYB_8AMPXfy-58">
          <mxGeometry relative="1" as="geometry" />
        </mxCell>
        <mxCell id="2YGb_UYOJxYB_8AMPXfy-41" value="Articulo" style="shape=table;startSize=30;container=1;collapsible=1;childLayout=tableLayout;fixedRows=1;rowLines=0;fontStyle=1;align=center;resizeLast=1;" vertex="1" parent="1">
          <mxGeometry x="1280" y="80" width="200" height="160" as="geometry" />
        </mxCell>
        <mxCell id="2YGb_UYOJxYB_8AMPXfy-42" value="" style="shape=partialRectangle;collapsible=0;dropTarget=0;pointerEvents=0;fillColor=none;top=0;left=0;bottom=1;right=0;points=[[0,0.5],[1,0.5]];portConstraint=eastwest;" vertex="1" parent="2YGb_UYOJxYB_8AMPXfy-41">
          <mxGeometry y="30" width="200" height="30" as="geometry" />
        </mxCell>
        <mxCell id="2YGb_UYOJxYB_8AMPXfy-43" value="PK" style="shape=partialRectangle;connectable=0;fillColor=none;top=0;left=0;bottom=0;right=0;fontStyle=1;overflow=hidden;" vertex="1" parent="2YGb_UYOJxYB_8AMPXfy-42">
          <mxGeometry width="30" height="30" as="geometry" />
        </mxCell>
        <mxCell id="2YGb_UYOJxYB_8AMPXfy-44" value="idArticulo" style="shape=partialRectangle;connectable=0;fillColor=none;top=0;left=0;bottom=0;right=0;align=left;spacingLeft=6;fontStyle=5;overflow=hidden;" vertex="1" parent="2YGb_UYOJxYB_8AMPXfy-42">
          <mxGeometry x="30" width="170" height="30" as="geometry" />
        </mxCell>
        <mxCell id="2YGb_UYOJxYB_8AMPXfy-45" value="" style="shape=partialRectangle;collapsible=0;dropTarget=0;pointerEvents=0;fillColor=none;top=0;left=0;bottom=0;right=0;points=[[0,0.5],[1,0.5]];portConstraint=eastwest;" vertex="1" parent="2YGb_UYOJxYB_8AMPXfy-41">
          <mxGeometry y="60" width="200" height="30" as="geometry" />
        </mxCell>
        <mxCell id="2YGb_UYOJxYB_8AMPXfy-46" value="" style="shape=partialRectangle;connectable=0;fillColor=none;top=0;left=0;bottom=0;right=0;editable=1;overflow=hidden;" vertex="1" parent="2YGb_UYOJxYB_8AMPXfy-45">
          <mxGeometry width="30" height="30" as="geometry" />
        </mxCell>
        <mxCell id="2YGb_UYOJxYB_8AMPXfy-47" value="precio" style="shape=partialRectangle;connectable=0;fillColor=none;top=0;left=0;bottom=0;right=0;align=left;spacingLeft=6;overflow=hidden;" vertex="1" parent="2YGb_UYOJxYB_8AMPXfy-45">
          <mxGeometry x="30" width="170" height="30" as="geometry" />
        </mxCell>
        <mxCell id="2YGb_UYOJxYB_8AMPXfy-48" value="" style="shape=partialRectangle;collapsible=0;dropTarget=0;pointerEvents=0;fillColor=none;top=0;left=0;bottom=0;right=0;points=[[0,0.5],[1,0.5]];portConstraint=eastwest;" vertex="1" parent="2YGb_UYOJxYB_8AMPXfy-41">
          <mxGeometry y="90" width="200" height="30" as="geometry" />
        </mxCell>
        <mxCell id="2YGb_UYOJxYB_8AMPXfy-49" value="" style="shape=partialRectangle;connectable=0;fillColor=none;top=0;left=0;bottom=0;right=0;editable=1;overflow=hidden;" vertex="1" parent="2YGb_UYOJxYB_8AMPXfy-48">
          <mxGeometry width="30" height="30" as="geometry" />
        </mxCell>
        <mxCell id="2YGb_UYOJxYB_8AMPXfy-50" value="descripcion" style="shape=partialRectangle;connectable=0;fillColor=none;top=0;left=0;bottom=0;right=0;align=left;spacingLeft=6;overflow=hidden;" vertex="1" parent="2YGb_UYOJxYB_8AMPXfy-48">
          <mxGeometry x="30" width="170" height="30" as="geometry" />
        </mxCell>
        <mxCell id="2YGb_UYOJxYB_8AMPXfy-58" value="Produce" style="shape=table;startSize=30;container=1;collapsible=1;childLayout=tableLayout;fixedRows=1;rowLines=0;fontStyle=1;align=center;resizeLast=1;" vertex="1" parent="1">
          <mxGeometry x="1280" y="400" width="200" height="160" as="geometry" />
        </mxCell>
        <mxCell id="2YGb_UYOJxYB_8AMPXfy-59" value="" style="shape=partialRectangle;collapsible=0;dropTarget=0;pointerEvents=0;fillColor=none;top=0;left=0;bottom=1;right=0;points=[[0,0.5],[1,0.5]];portConstraint=eastwest;" vertex="1" parent="2YGb_UYOJxYB_8AMPXfy-58">
          <mxGeometry y="30" width="200" height="30" as="geometry" />
        </mxCell>
        <mxCell id="2YGb_UYOJxYB_8AMPXfy-60" value="PK" style="shape=partialRectangle;connectable=0;fillColor=none;top=0;left=0;bottom=0;right=0;fontStyle=1;overflow=hidden;" vertex="1" parent="2YGb_UYOJxYB_8AMPXfy-59">
          <mxGeometry width="30" height="30" as="geometry" />
        </mxCell>
        <mxCell id="2YGb_UYOJxYB_8AMPXfy-61" value="idArticulo&#xa;idFabrica&#xa;" style="shape=partialRectangle;connectable=0;fillColor=none;top=0;left=0;bottom=0;right=0;align=left;spacingLeft=6;fontStyle=5;overflow=hidden;" vertex="1" parent="2YGb_UYOJxYB_8AMPXfy-59">
          <mxGeometry x="30" width="170" height="30" as="geometry" />
        </mxCell>
        <mxCell id="2YGb_UYOJxYB_8AMPXfy-62" value="" style="shape=partialRectangle;collapsible=0;dropTarget=0;pointerEvents=0;fillColor=none;top=0;left=0;bottom=0;right=0;points=[[0,0.5],[1,0.5]];portConstraint=eastwest;" vertex="1" parent="2YGb_UYOJxYB_8AMPXfy-58">
          <mxGeometry y="60" width="200" height="30" as="geometry" />
        </mxCell>
        <mxCell id="2YGb_UYOJxYB_8AMPXfy-63" value="" style="shape=partialRectangle;connectable=0;fillColor=none;top=0;left=0;bottom=0;right=0;editable=1;overflow=hidden;" vertex="1" parent="2YGb_UYOJxYB_8AMPXfy-62">
          <mxGeometry width="30" height="30" as="geometry" />
        </mxCell>
        <mxCell id="2YGb_UYOJxYB_8AMPXfy-64" value="cantidad" style="shape=partialRectangle;connectable=0;fillColor=none;top=0;left=0;bottom=0;right=0;align=left;spacingLeft=6;overflow=hidden;" vertex="1" parent="2YGb_UYOJxYB_8AMPXfy-62">
          <mxGeometry x="30" width="170" height="30" as="geometry" />
        </mxCell>
        <mxCell id="oLl_Wkx4Nh1EhpCTeB_h-33" value="Fabrica" style="shape=table;startSize=30;container=1;collapsible=1;childLayout=tableLayout;fixedRows=1;rowLines=0;fontStyle=1;align=center;resizeLast=1;" parent="1" vertex="1">
          <mxGeometry x="880" y="400" width="200" height="160" as="geometry" />
        </mxCell>
        <mxCell id="oLl_Wkx4Nh1EhpCTeB_h-34" value="" style="shape=partialRectangle;collapsible=0;dropTarget=0;pointerEvents=0;fillColor=none;top=0;left=0;bottom=1;right=0;points=[[0,0.5],[1,0.5]];portConstraint=eastwest;" parent="oLl_Wkx4Nh1EhpCTeB_h-33" vertex="1">
          <mxGeometry y="30" width="200" height="30" as="geometry" />
        </mxCell>
        <mxCell id="oLl_Wkx4Nh1EhpCTeB_h-35" value="PK" style="shape=partialRectangle;connectable=0;fillColor=none;top=0;left=0;bottom=0;right=0;fontStyle=1;overflow=hidden;" parent="oLl_Wkx4Nh1EhpCTeB_h-34" vertex="1">
          <mxGeometry width="30" height="30" as="geometry" />
        </mxCell>
        <mxCell id="oLl_Wkx4Nh1EhpCTeB_h-36" value="idFabrica" style="shape=partialRectangle;connectable=0;fillColor=none;top=0;left=0;bottom=0;right=0;align=left;spacingLeft=6;fontStyle=5;overflow=hidden;" parent="oLl_Wkx4Nh1EhpCTeB_h-34" vertex="1">
          <mxGeometry x="30" width="170" height="30" as="geometry" />
        </mxCell>
        <mxCell id="oLl_Wkx4Nh1EhpCTeB_h-37" value="" style="shape=partialRectangle;collapsible=0;dropTarget=0;pointerEvents=0;fillColor=none;top=0;left=0;bottom=0;right=0;points=[[0,0.5],[1,0.5]];portConstraint=eastwest;" parent="oLl_Wkx4Nh1EhpCTeB_h-33" vertex="1">
          <mxGeometry y="60" width="200" height="40" as="geometry" />
        </mxCell>
        <mxCell id="oLl_Wkx4Nh1EhpCTeB_h-38" value="" style="shape=partialRectangle;connectable=0;fillColor=none;top=0;left=0;bottom=0;right=0;editable=1;overflow=hidden;" parent="oLl_Wkx4Nh1EhpCTeB_h-37" vertex="1">
          <mxGeometry width="30" height="40" as="geometry" />
        </mxCell>
        <mxCell id="oLl_Wkx4Nh1EhpCTeB_h-39" value="telefono" style="shape=partialRectangle;connectable=0;fillColor=none;top=0;left=0;bottom=0;right=0;align=left;spacingLeft=6;overflow=hidden;" parent="oLl_Wkx4Nh1EhpCTeB_h-37" vertex="1">
          <mxGeometry x="30" width="170" height="40" as="geometry" />
        </mxCell>
        <mxCell id="2YGb_UYOJxYB_8AMPXfy-27" value="Pedido-Articulo" style="shape=table;startSize=30;container=1;collapsible=1;childLayout=tableLayout;fixedRows=1;rowLines=0;fontStyle=1;align=center;resizeLast=1;" vertex="1" parent="1">
          <mxGeometry x="880" y="80" width="200" height="160" as="geometry" />
        </mxCell>
        <mxCell id="2YGb_UYOJxYB_8AMPXfy-28" value="" style="shape=partialRectangle;collapsible=0;dropTarget=0;pointerEvents=0;fillColor=none;top=0;left=0;bottom=1;right=0;points=[[0,0.5],[1,0.5]];portConstraint=eastwest;" vertex="1" parent="2YGb_UYOJxYB_8AMPXfy-27">
          <mxGeometry y="30" width="200" height="30" as="geometry" />
        </mxCell>
        <mxCell id="2YGb_UYOJxYB_8AMPXfy-29" value="PK" style="shape=partialRectangle;connectable=0;fillColor=none;top=0;left=0;bottom=0;right=0;fontStyle=1;overflow=hidden;" vertex="1" parent="2YGb_UYOJxYB_8AMPXfy-28">
          <mxGeometry width="30" height="30" as="geometry" />
        </mxCell>
        <mxCell id="2YGb_UYOJxYB_8AMPXfy-30" value="idPedido&#xa;idArticulo&#xa;" style="shape=partialRectangle;connectable=0;fillColor=none;top=0;left=0;bottom=0;right=0;align=left;spacingLeft=6;fontStyle=5;overflow=hidden;" vertex="1" parent="2YGb_UYOJxYB_8AMPXfy-28">
          <mxGeometry x="30" width="170" height="30" as="geometry" />
        </mxCell>
        <mxCell id="2YGb_UYOJxYB_8AMPXfy-31" value="" style="shape=partialRectangle;collapsible=0;dropTarget=0;pointerEvents=0;fillColor=none;top=0;left=0;bottom=0;right=0;points=[[0,0.5],[1,0.5]];portConstraint=eastwest;" vertex="1" parent="2YGb_UYOJxYB_8AMPXfy-27">
          <mxGeometry y="60" width="200" height="30" as="geometry" />
        </mxCell>
        <mxCell id="2YGb_UYOJxYB_8AMPXfy-32" value="" style="shape=partialRectangle;connectable=0;fillColor=none;top=0;left=0;bottom=0;right=0;editable=1;overflow=hidden;" vertex="1" parent="2YGb_UYOJxYB_8AMPXfy-31">
          <mxGeometry width="30" height="30" as="geometry" />
        </mxCell>
        <mxCell id="2YGb_UYOJxYB_8AMPXfy-33" value="cantidad" style="shape=partialRectangle;connectable=0;fillColor=none;top=0;left=0;bottom=0;right=0;align=left;spacingLeft=6;overflow=hidden;" vertex="1" parent="2YGb_UYOJxYB_8AMPXfy-31">
          <mxGeometry x="30" width="170" height="30" as="geometry" />
        </mxCell>
        <mxCell id="2YGb_UYOJxYB_8AMPXfy-34" value="" style="shape=partialRectangle;collapsible=0;dropTarget=0;pointerEvents=0;fillColor=none;top=0;left=0;bottom=0;right=0;points=[[0,0.5],[1,0.5]];portConstraint=eastwest;" vertex="1" parent="2YGb_UYOJxYB_8AMPXfy-27">
          <mxGeometry y="90" width="200" height="30" as="geometry" />
        </mxCell>
        <mxCell id="2YGb_UYOJxYB_8AMPXfy-35" value="" style="shape=partialRectangle;connectable=0;fillColor=none;top=0;left=0;bottom=0;right=0;editable=1;overflow=hidden;" vertex="1" parent="2YGb_UYOJxYB_8AMPXfy-34">
          <mxGeometry width="30" height="30" as="geometry" />
        </mxCell>
        <mxCell id="2YGb_UYOJxYB_8AMPXfy-36" value="precio" style="shape=partialRectangle;connectable=0;fillColor=none;top=0;left=0;bottom=0;right=0;align=left;spacingLeft=6;overflow=hidden;" vertex="1" parent="2YGb_UYOJxYB_8AMPXfy-34">
          <mxGeometry x="30" width="170" height="30" as="geometry" />
        </mxCell>
        <mxCell id="2YGb_UYOJxYB_8AMPXfy-37" value="" style="shape=partialRectangle;collapsible=0;dropTarget=0;pointerEvents=0;fillColor=none;top=0;left=0;bottom=0;right=0;points=[[0,0.5],[1,0.5]];portConstraint=eastwest;" vertex="1" parent="2YGb_UYOJxYB_8AMPXfy-27">
          <mxGeometry y="120" width="200" height="30" as="geometry" />
        </mxCell>
        <mxCell id="2YGb_UYOJxYB_8AMPXfy-38" value="" style="shape=partialRectangle;connectable=0;fillColor=none;top=0;left=0;bottom=0;right=0;editable=1;overflow=hidden;" vertex="1" parent="2YGb_UYOJxYB_8AMPXfy-37">
          <mxGeometry width="30" height="30" as="geometry" />
        </mxCell>
        <mxCell id="2YGb_UYOJxYB_8AMPXfy-39" value="" style="shape=partialRectangle;connectable=0;fillColor=none;top=0;left=0;bottom=0;right=0;align=left;spacingLeft=6;overflow=hidden;" vertex="1" parent="2YGb_UYOJxYB_8AMPXfy-37">
          <mxGeometry x="30" width="170" height="30" as="geometry" />
        </mxCell>
        <mxCell id="2YGb_UYOJxYB_8AMPXfy-75" style="edgeStyle=orthogonalEdgeStyle;rounded=0;orthogonalLoop=1;jettySize=auto;html=1;exitX=0;exitY=0.5;exitDx=0;exitDy=0;entryX=1;entryY=0.5;entryDx=0;entryDy=0;" edge="1" parent="1" source="2YGb_UYOJxYB_8AMPXfy-59" target="oLl_Wkx4Nh1EhpCTeB_h-34">
          <mxGeometry relative="1" as="geometry" />
        </mxCell>
      </root>
    </mxGraphModel>
  </diagram>
</mxfile>
